<svg width="30" height="30" viewBox="0 0 30 30" fill="none" xmlns="http://www.w3.org/2000/svg">
<circle cx="15" cy="15" r="14.5" fill="#FAFD5C" stroke="black"/>
<path d="M13.4791 20.0829L9.12423 12.4308C8.46029 11.2642 9.30285 9.81521 10.6452 9.81521L19.3548 9.81521C20.6972 9.81521 21.5397 11.2642 20.8758 12.4308L16.5209 20.0829C15.8498 21.2621 14.1502 21.2621 13.4791 20.0829Z" fill="white" stroke="black" stroke-width="0.5"/>
<path d="M13.4791 22.822L9.12423 15.1699C8.46029 14.0033 9.30285 12.5543 10.6452 12.5543L19.3548 12.5543C20.6972 12.5543 21.5397 14.0033 20.8758 15.1699L16.5209 22.822C15.8498 24.0013 14.1502 24.0013 13.4791 22.822Z" fill="white" stroke="black" stroke-width="0.5"/>
<path d="M13.8532 17.5448L8.787 8.64267C8.27257 7.73873 8.91919 6.61958 9.93371 6.61958L20.0662 6.61958C21.0807 6.61958 21.7274 7.73873 21.2129 8.64267L16.1467 17.5448C15.6363 18.4416 14.3636 18.4416 13.8532 17.5448Z" fill="white" stroke="black" stroke-width="0.5"/>
</svg>
